<?xml version="1.0" encoding="UTF-8"?>
<!DOCTYPE svg PUBLIC "-//W3C//DTD SVG 1.1//EN" "http://www.w3.org/Graphics/SVG/1.1/DTD/svg11.dtd">
<!-- Creator: CorelDRAW -->
<svg xmlns="http://www.w3.org/2000/svg" xml:space="preserve" width="122mm" height="100mm" style="shape-rendering:geometricPrecision; text-rendering:geometricPrecision; image-rendering:optimizeQuality; fill-rule:evenodd; clip-rule:evenodd"
viewBox="0 0 122 100"
 xmlns:xlink="http://www.w3.org/1999/xlink">
 <defs>
  <style type="text/css">
   <![CDATA[
    .fil0 {fill:#3B9AC4}
   ]]>
  </style>
 </defs>
 <g id="Vrstva_x0020_1">
  <metadata id="CorelCorpID_0Corel-Layer"/>
  <path class="fil0" d="M59.8317 5.9505c1.0523,6.5604 0.3944,17.0541 -1.0453,17.1068 -4.0675,-2.9175 -15.5535,-15.8866 -15.2945,-10.1259l0.931 20.717c0.3941,6.3078 -15.325,15.0883 -21.0517,19.1463 -4.2079,2.982 -14.3154,16.0917 -22.1837,23.4132 8.1305,-6.6722 21.038,-17.7461 28.4272,-24.3811 6.7002,-6.016 23.4989,-9.5276 23.6243,-20.5827l0 -4.0073c2.502,0.6679 7.1809,8.7816 8.6851,5.556 1.4167,-3.0386 4.3958,-10.9407 4.9397,-8.7618 2.8173,11.2849 16.622,6.0531 21.9263,20.0016 3.6061,9.2762 1.6707,8.1337 9.8035,13.1865 4.1413,2.5731 13.1517,3.3789 13.1517,8.4876 0,4.9363 -6.3646,2.5272 -6.4116,6.4116l0 3.5512c0,1.5941 -2.5783,1.7286 -5.9073,0.4562 -3.0152,-1.1526 -4.5859,-4.7446 -12.0242,-4.6364 -9.833,0.1431 -17.0934,19.9107 -20.0509,26.4807 3.7104,-5.7621 15.0549,-20.3356 19.5293,-20.3672 7.5175,0 10.1606,6.1763 20.0561,5.736 6.2006,-0.5662 4.4958,-7.1518 4.7788,-9.9491 1.5892,-0.461 9.3287,-3.6691 9.3287,-9.4762 0,-8.0591 -13.0661,-8.6466 -18.7087,-12.071 -3.5752,-2.17 -6.144,-4.9597 -7.6777,-9.121 -1.8572,-5.0387 -2.9675,-5.4756 -6.3425,-8.8852 -7.158,-4.7439 -13.0546,-11.5874 -16.3674,-12.2335 0.0464,-4.6102 -5.6694,-17.254 -12.8984,-20.5286l0.7822 4.8763z"/>
 </g>
</svg>
