<?xml version="1.0" encoding="UTF-8"?>
<!DOCTYPE svg PUBLIC "-//W3C//DTD SVG 1.1//EN" "http://www.w3.org/Graphics/SVG/1.1/DTD/svg11.dtd">
<!-- Creator: CorelDRAW -->
<svg xmlns="http://www.w3.org/2000/svg" xml:space="preserve" width="600px" height="500px" style="shape-rendering:geometricPrecision; text-rendering:geometricPrecision; image-rendering:optimizeQuality; fill-rule:evenodd; clip-rule:evenodd"
viewBox="0 0 600 480"
 xmlns:xlink="http://www.w3.org/1999/xlink">
 <defs>
  <style type="text/css">
   <![CDATA[
    .str0 {stroke:#1F1A17;stroke-width:0.75}
    .str1 {stroke:#2B9BCE;stroke-width:0.75}
    .fil1 {fill:black}
    .fil2 {fill:#2B9BCE}
    .fil0 {fill:#3B9AC4}
   ]]>
  </style>
 </defs>
 <g id="Vrstva_x0020_1">
  <metadata id="CorelCorpID_0Corel-Layer"/>
  <path class="fil0" d="M302.744 19.4003c3.94612,24.6015 1.479,63.9529 -3.91987,64.1505 -15.2531,-10.9406 -58.3256,-59.5747 -57.3544,-37.9721l3.49125 77.6888c1.47788,23.6543 -57.4688,56.5811 -78.9439,71.7986 -15.7796,11.1825 -53.6827,60.3439 -83.1889,87.7995 30.4894,-25.0208 78.8925,-66.5479 106.602,-91.4291 25.1258,-22.56 88.1209,-35.7285 88.5911,-77.1851l0 -15.0274c9.3825,2.50463 26.9284,32.931 32.5691,20.835 5.31263,-11.3948 16.4843,-41.0276 18.5239,-32.8568 10.5649,42.3184 62.3325,22.6991 82.2236,75.006 13.5229,34.7858 6.26513,30.5014 36.7631,49.4494 15.5299,9.64912 49.3189,12.6709 49.3189,31.8285 0,18.5111 -23.8672,9.477 -24.0435,24.0435l0 13.317c0,5.97788 -9.66862,6.48225 -22.1524,1.71075 -11.307,-4.32225 -17.1971,-17.7923 -45.0908,-17.3865 -36.8737,0.536625 -64.1002,74.6651 -75.1909,99.3026 13.914,-21.6079 56.4559,-76.2585 73.2349,-76.377 28.1906,0 38.1022,23.1611 75.2104,21.51 23.2523,-2.12325 16.8593,-26.8193 17.9205,-37.3091 5.9595,-1.72875 34.9826,-13.7591 34.9826,-35.5358 0,-30.2216 -48.9979,-32.4248 -70.1576,-45.2663 -13.407,-8.1375 -23.04,-18.5989 -28.7914,-34.2038 -6.9645,-18.8951 -11.1281,-20.5335 -23.7844,-33.3195 -26.8425,-17.7896 -48.9547,-43.4527 -61.3777,-45.8756 0.174,-17.2883 -21.2602,-64.7025 -48.369,-76.9822l2.93325 18.2861z"/>
  <path class="fil1 str0" d="M4.58137 319.171c16.0643,15.8955 140.36,154.487 348.228,106.561 174.482,-40.2289 239.637,-237.2 217.292,-381.453 6.2985,15.3071 68.4682,169.033 -44.8676,307.763 -144.479,176.851 -375.751,85.5079 -383.275,84.5674 -7.52437,-0.9405 -86.1169,-38.9032 -137.377,-117.439z"/>
  <path class="fil2 str1" d="M570.101 44.2792c81.987,179.05 -43.3189,427.141 -290.013,432.314 -117.808,2.47087 -220.699,-63.3574 -275.507,-157.422 56.5886,85.7122 158.661,142.128 270.462,141.682 235.748,-0.9405 360.093,-251.384 295.058,-416.574z"/>
 </g>
</svg>
